<svg id="Layer_1" data-name="Layer 1" xmlns="http://www.w3.org/2000/svg" xmlns:xlink="http://www.w3.org/1999/xlink" viewBox="0 0 927 866"><defs><style>.cls-1,.cls-4{fill:#fff;}.cls-1,.cls-2,.cls-3,.cls-4,.cls-5,.cls-6,.cls-7,.cls-8,.cls-9{stroke:gray;stroke-miterlimit:10;}.cls-1,.cls-2,.cls-3,.cls-5,.cls-6,.cls-7,.cls-8,.cls-9{stroke-width:1.32px;}.cls-2{fill:url(#linear-gradient);}.cls-3{fill:url(#linear-gradient-2);}.cls-4{stroke-width:1.42px;}.cls-5{fill:url(#linear-gradient-3);}.cls-6{fill:url(#linear-gradient-4);}.cls-7{fill:url(#linear-gradient-5);}.cls-8{fill:url(#linear-gradient-6);}.cls-9{fill:url(#linear-gradient-7);}</style><linearGradient id="linear-gradient" x1="593.16" y1="298.07" x2="834.06" y2="297.8" gradientUnits="userSpaceOnUse"><stop offset="0" stop-color="#89e2ac"/><stop offset="0.19" stop-color="#68e29d"/><stop offset="0.68" stop-color="#7fe2a8"/><stop offset="1" stop-color="#89e2ac"/></linearGradient><linearGradient id="linear-gradient-2" x1="593.17" y1="420.36" x2="837.65" y2="420.36" gradientUnits="userSpaceOnUse"><stop offset="0" stop-color="#89e2ac"/><stop offset="0.22" stop-color="#68e29d"/><stop offset="0.69" stop-color="#7fe2a8"/><stop offset="1" stop-color="#89e2ac"/></linearGradient><linearGradient id="linear-gradient-3" x1="491.88" y1="427.79" x2="597.57" y2="427.79" gradientUnits="userSpaceOnUse"><stop offset="0.23" stop-color="#68e29d"/><stop offset="0.49" stop-color="#6ee2a0"/><stop offset="0.82" stop-color="#7de2a7"/><stop offset="1" stop-color="#89e2ac"/></linearGradient><linearGradient id="linear-gradient-4" x1="500.03" y1="517.34" x2="594.76" y2="517.34" gradientUnits="userSpaceOnUse"><stop offset="0.37" stop-color="#68e29d"/><stop offset="0.75" stop-color="#7fe2a8"/><stop offset="1" stop-color="#89e2ac"/></linearGradient><linearGradient id="linear-gradient-5" x1="367.53" y1="476.54" x2="490.35" y2="476.54" gradientUnits="userSpaceOnUse"><stop offset="0" stop-color="#89e2ac"/><stop offset="0.61" stop-color="#72e2a1"/><stop offset="1" stop-color="#68e29d"/></linearGradient><linearGradient id="linear-gradient-6" x1="131.54" y1="383.86" x2="244.5" y2="383.86" gradientUnits="userSpaceOnUse"><stop offset="0" stop-color="#89e2ac"/><stop offset="1" stop-color="#77e5a5"/></linearGradient><linearGradient id="linear-gradient-7" x1="252.47" y1="386.14" x2="363.85" y2="386.14" gradientUnits="userSpaceOnUse"><stop offset="0" stop-color="#77e5a5"/><stop offset="1" stop-color="#89e2ac"/></linearGradient></defs><path class="cls-1" d="M564.71,382.65V258.1A122.24,122.24,0,0,1,686.94,380.34"/><path class="cls-1" d="M809.12,381.54a122.24,122.24,0,0,1-244.47,1.11"/><path class="cls-1" d="M564.65,382.65v-1.11H565"/><path class="cls-1" d="M572.18,377.87V253.33A122.24,122.24,0,0,1,694.42,375.57"/><path class="cls-1" d="M579.51,376.77H816.6a122.24,122.24,0,0,1-244.38,4.77"/><path class="cls-1" d="M572.22,381.54c-.07-1.58-.1-3.17-.1-4.77"/><path class="cls-1" d="M579.91,371.34V246.79A122.23,122.23,0,0,1,702.14,369"/><path class="cls-1" d="M824.32,370.23a122.24,122.24,0,1,1-244.47,0"/><path class="cls-1" d="M587.38,366.56V242A122.24,122.24,0,0,1,709.62,364.26"/><path class="cls-1" d="M593.17,365.46H831.8a122.24,122.24,0,0,1-244.47,0"/><line class="cls-1" x1="587.33" y1="365.46" x2="588.06" y2="365.46"/><path class="cls-2" d="M593.23,360.34V235.8A122.24,122.24,0,0,1,715.47,358"/><path class="cls-3" d="M837.65,359.24a122.24,122.24,0,1,1-244.48,0Z"/><path class="cls-1" d="M365.3,359.35l7.43-6.13A122.82,122.82,0,0,1,531.21,540.89"/><path class="cls-1" d="M373.39,361.3l7.43-6.13A122.82,122.82,0,0,1,539.29,542.85"/><path class="cls-4" d="M478.15,444.52l54.14,82.91,51.17,83.94a131.8,131.8,0,0,1-157.72-15.44l-7.36-7"/><path class="cls-1" d="M334.53,375.58a122.82,122.82,0,1,1,0,245.63Z"/><path class="cls-1" d="M381.8,363.5l7.42-6.13A122.82,122.82,0,0,1,547.7,545.05"/><path class="cls-1" d="M391,367.44l7.42-6.13A122.82,122.82,0,0,1,556.86,549"/><path class="cls-4" d="M478.37,437.73l54.15,82.9,51.17,83.94A131.8,131.8,0,0,1,426,589.13l-3.41-3.54"/><path class="cls-1" d="M342.23,370.2a122.82,122.82,0,0,1,0,245.64Z"/><path class="cls-4" d="M427.45,581.32a131.83,131.83,0,0,0,157.72,15.44l-51.17-84-54.14-82.9"/><path class="cls-1" d="M349.6,364.07a122.82,122.82,0,0,1,0,245.63Z"/><path class="cls-4" d="M428,574.89a131.8,131.8,0,0,0,157.72,15.44l-51.16-83.94-54.15-82.91"/><path class="cls-1" d="M357,359.58a122.82,122.82,0,1,1,0,245.63Z"/><path class="cls-5" d="M394,356.41l10.35-8.09c51.48-43.47,129.6-36.88,173.07,14.6S614.27,492.53,562.8,536"/><path class="cls-6" d="M482.69,432.3l57.46,72.24L594.94,578a122.87,122.87,0,0,1-147.73-.62s-5.61-4.29-4.3-4.17"/><path class="cls-7" d="M367.53,353.72a122.82,122.82,0,1,1,0,245.64Z"/><path class="cls-1" d="M99.33,289.05a117.71,117.71,0,1,1-.14,235.41Z"/><path class="cls-1" d="M337,526.74a117.71,117.71,0,0,1-.3-235.42Z"/><path class="cls-1" d="M106.7,282.87a117.71,117.71,0,1,1-.15,235.41Z"/><path class="cls-1" d="M344.36,520.56a117.71,117.71,0,1,1-.3-235.42Z"/><path class="cls-1" d="M115.81,278.55A117.71,117.71,0,0,1,115.66,514Z"/><path class="cls-1" d="M353.46,516.24a117.71,117.71,0,1,1-.3-235.42Z"/><path class="cls-1" d="M123.17,272.37A117.71,117.71,0,1,1,123,507.79Z"/><path class="cls-1" d="M360.83,510.06a117.71,117.71,0,1,1-.3-235.42Z"/><path class="cls-8" d="M129.22,266.15a117.71,117.71,0,0,1-.15,235.42Z"/><path class="cls-9" d="M366.89,503.85c-65.14.08-118-52.55-118.09-117.56s52.65-117.77,117.78-117.86Z"/></svg>