<svg id="Layer_1" data-name="Layer 1" xmlns="http://www.w3.org/2000/svg" xmlns:xlink="http://www.w3.org/1999/xlink" viewBox="0 0 927 866"><defs><style>.cls-1,.cls-6{fill:#fff;}.cls-1,.cls-2,.cls-3,.cls-4,.cls-5,.cls-6,.cls-7,.cls-8,.cls-9{stroke:gray;stroke-miterlimit:10;}.cls-1{stroke-width:1.16px;}.cls-2,.cls-3,.cls-4,.cls-5,.cls-7,.cls-8,.cls-9{stroke-width:1.32px;}.cls-2{fill:url(#linear-gradient);}.cls-3{fill:url(#linear-gradient-2);}.cls-4{fill:url(#linear-gradient-3);}.cls-5{fill:url(#linear-gradient-4);}.cls-6{stroke-width:1.13px;}.cls-7{fill:url(#linear-gradient-5);}.cls-8{fill:url(#linear-gradient-6);}.cls-9{fill:url(#linear-gradient-7);}</style><linearGradient id="linear-gradient" x1="540.14" y1="563.74" x2="676.92" y2="563.58" gradientUnits="userSpaceOnUse"><stop offset="0" stop-color="#c1e3d1"/><stop offset="1" stop-color="#77e5a5"/></linearGradient><linearGradient id="linear-gradient-2" x1="540.15" y1="705.33" x2="823.23" y2="705.33" xlink:href="#linear-gradient"/><linearGradient id="linear-gradient-3" x1="141.33" y1="200.48" x2="298.91" y2="201.23" xlink:href="#linear-gradient"/><linearGradient id="linear-gradient-4" x1="164.25" y1="203.11" x2="400.22" y2="203.11" xlink:href="#linear-gradient"/><linearGradient id="linear-gradient-5" x1="166.31" y1="584.49" x2="413.26" y2="584.49" xlink:href="#linear-gradient"/><linearGradient id="linear-gradient-6" x1="171.86" y1="685.54" x2="395" y2="685.54" xlink:href="#linear-gradient"/><linearGradient id="linear-gradient-7" x1="163.53" y1="639.51" x2="304.84" y2="639.51" xlink:href="#linear-gradient"/></defs><path class="cls-1" d="M506.18,661.57V517.36A141.54,141.54,0,0,1,647.72,658.9"/><path class="cls-1" d="M789.19,660.29a141.54,141.54,0,0,1-283.08,0"/><path class="cls-1" d="M514.84,656V511.83A141.54,141.54,0,0,1,656.38,653.37"/><path class="cls-1" d="M527.11,654.77H797.85a141.54,141.54,0,0,1-283.08,0"/><line class="cls-1" x1="523.34" y1="654.77" x2="527.11" y2="654.77"/><path class="cls-1" d="M523.78,648.47V504.26A141.54,141.54,0,0,1,665.32,645.8"/><path class="cls-1" d="M534.86,647.19H806.79a141.54,141.54,0,0,1-283.08,0"/><path class="cls-1" d="M532.44,643V498.73A141.54,141.54,0,0,1,674,640.27"/><path class="cls-1" d="M542,641.67H815.45a141.54,141.54,0,0,1-283.08,0h.34"/><path class="cls-2" d="M540.22,635.84V491.63A141.54,141.54,0,0,1,681.76,633.17"/><path class="cls-3" d="M823.23,634.56a141.54,141.54,0,1,1-283.08,0Z"/><path class="cls-1" d="M103.94,90.68a136.3,136.3,0,0,1-.17,272.6Z"/><path class="cls-1" d="M379.13,365.91a136.3,136.3,0,1,1-.35-272.59Z"/><path class="cls-1" d="M112.47,83.53a136.3,136.3,0,0,1-.17,272.59Z"/><path class="cls-1" d="M387.66,358.75a136.3,136.3,0,1,1-.35-272.59Z"/><path class="cls-1" d="M123,78.53a136.3,136.3,0,0,1-.17,272.59Z"/><path class="cls-1" d="M398.2,353.75a136.3,136.3,0,1,1-.35-272.59Z"/><path class="cls-1" d="M131.54,71.37a136.3,136.3,0,0,1-.17,272.6Z"/><path class="cls-1" d="M406.73,346.6A136.3,136.3,0,0,1,406.38,74Z"/><path class="cls-4" d="M138.54,64.17a136.3,136.3,0,0,1-.17,272.59Z"/><path class="cls-5" d="M413.74,339.41c-75.42.1-136.64-60.85-136.73-136.12S338,66.91,413.39,66.81Z"/><path class="cls-6" d="M119.36,519.91a138.59,138.59,0,1,1,0,277.17Z"/><path class="cls-6" d="M143.25,502.92l8.38-6.91A138.59,138.59,0,1,1,330.46,707.78"/><path class="cls-6" d="M167.13,510.75l8.38-6.91A138.59,138.59,0,1,1,354.34,715.61"/><path class="cls-6" d="M134,509.93a138.59,138.59,0,0,1,0,277.18Z"/><path class="cls-6" d="M152.85,503.88l8.38-6.91A138.59,138.59,0,1,1,340.06,708.74"/><path class="cls-6" d="M246.68,603.67l64.84,81.51,61.82,82.89a138.65,138.65,0,0,1-166.7-.69"/><path class="cls-6" d="M125.68,515a138.59,138.59,0,1,1,0,277.18Z"/><path class="cls-6" d="M215,760.45a138.65,138.65,0,0,0,166.7.7l-61.83-82.89L255,596.74"/><path class="cls-6" d="M134,508.07a138.59,138.59,0,0,1,0,277.18Z"/><path class="cls-6" d="M166.49,503.83l8.38-6.92A138.59,138.59,0,1,1,353.7,708.68"/><path class="cls-6" d="M223.27,755.38a138.65,138.65,0,0,0,166.7.7l-61.83-82.89L263.3,591.67"/><path class="cls-6" d="M142.31,503a138.59,138.59,0,1,1,0,277.17Z"/><path class="cls-7" d="M180,504l11.69-9.12C249.74,445.77,337.9,453.21,387,511.3s41.62,146.24-16.47,195.3"/><path class="cls-8" d="M280.09,589.59l64.84,81.51L406.76,754a138.65,138.65,0,0,1-166.7-.69s-6.33-4.85-4.85-4.72"/><path class="cls-9" d="M150.14,500.92a138.59,138.59,0,1,1,0,277.17Z"/></svg>