<svg id="Layer_1" data-name="Layer 1" xmlns="http://www.w3.org/2000/svg" xmlns:xlink="http://www.w3.org/1999/xlink" viewBox="0 0 927 866"><defs><style>.cls-1,.cls-4{fill:#fff;}.cls-1,.cls-10,.cls-2,.cls-3,.cls-4,.cls-5,.cls-6,.cls-7,.cls-8,.cls-9{stroke:gray;stroke-miterlimit:10;}.cls-1{stroke-width:1.14px;}.cls-10,.cls-2,.cls-3,.cls-5,.cls-6,.cls-7,.cls-9{stroke-width:1.3px;}.cls-2{fill:url(#linear-gradient);}.cls-3{fill:url(#linear-gradient-2);}.cls-4{stroke-width:1.11px;}.cls-5{fill:url(#linear-gradient-3);}.cls-6{fill:url(#linear-gradient-4);}.cls-7{fill:url(#linear-gradient-5);}.cls-8{stroke-width:1.27px;fill:url(#linear-gradient-6);}.cls-9{fill:url(#linear-gradient-7);}.cls-10{fill:url(#linear-gradient-8);}</style><linearGradient id="linear-gradient" x1="671.08" y1="423.43" x2="666.24" y2="288.73" gradientUnits="userSpaceOnUse"><stop offset="0.37" stop-color="#2ae8b8"/><stop offset="1" stop-color="#2dc49c"/></linearGradient><linearGradient id="linear-gradient-2" x1="739.73" y1="377.52" x2="743.7" y2="655.18" gradientUnits="userSpaceOnUse"><stop offset="0.23" stop-color="#2ae8b8"/><stop offset="0.64" stop-color="#2dc49c"/></linearGradient><linearGradient id="linear-gradient-3" x1="406.09" y1="493.26" x2="572.38" y2="317.1" xlink:href="#linear-gradient"/><linearGradient id="linear-gradient-4" x1="399.48" y1="608.54" x2="565.98" y2="466.43" gradientUnits="userSpaceOnUse"><stop offset="0" stop-color="#2dbe98"/><stop offset="1" stop-color="#2ae5b6"/></linearGradient><linearGradient id="linear-gradient-5" x1="355.22" y1="464.03" x2="493.85" y2="464.03" xlink:href="#linear-gradient-4"/><linearGradient id="linear-gradient-6" x1="100.86" y1="385.41" x2="334.94" y2="385.97" gradientUnits="userSpaceOnUse"><stop offset="0.48" stop-color="#0ccb83"/><stop offset="0.69" stop-color="#08bd7e"/><stop offset="1" stop-color="#01a175"/></linearGradient><linearGradient id="linear-gradient-7" x1="77.2" y1="382.07" x2="231.79" y2="382.81" xlink:href="#linear-gradient-4"/><linearGradient id="linear-gradient-8" x1="99.69" y1="384.66" x2="331.16" y2="384.66" xlink:href="#linear-gradient"/></defs><path class="cls-1" d="M576.71,444.62V303.15A138.85,138.85,0,0,1,715.56,442"/><path class="cls-1" d="M588.75,443.36H854.34a138.85,138.85,0,1,1-277.69,0"/><line class="cls-1" x1="585.05" y1="443.36" x2="588.75" y2="443.36"/><path class="cls-1" d="M585.49,437.19V295.72A138.85,138.85,0,0,1,724.33,434.57"/><path class="cls-1" d="M596.36,435.93H863.11a138.85,138.85,0,1,1-277.69,0"/><path class="cls-1" d="M594,431.77V290.3A138.84,138.84,0,0,1,732.82,429.15"/><path class="cls-1" d="M603.34,430.51H871.6a138.85,138.85,0,1,1-277.69,0h.33"/><path class="cls-2" d="M601.61,424.8V283.33A138.84,138.84,0,0,1,740.46,422.18"/><path class="cls-3" d="M879.24,423.54a138.85,138.85,0,1,1-277.69,0Z"/><path class="cls-4" d="M345,331l8.22-6.78A135.95,135.95,0,1,1,528.61,532"/><path class="cls-4" d="M360.68,339.65l8.22-6.78A135.95,135.95,0,1,1,544.32,540.61"/><path class="cls-4" d="M328.18,338.85a136,136,0,0,1,0,271.9Z"/><path class="cls-4" d="M353.41,332.91l8.22-6.78A136,136,0,0,1,537.06,533.87"/><path class="cls-4" d="M441.6,427.91l63.61,80,60.65,81.31a136,136,0,0,1-163.53-.68"/><path class="cls-4" d="M316.17,345.75a135.95,135.95,0,1,1,0,271.89Z"/><path class="cls-4" d="M410.49,581.71a136,136,0,0,0,163.52.68l-60.65-81.31-63.6-80"/><path class="cls-4" d="M324.32,339a136,136,0,0,1,0,271.9Z"/><path class="cls-4" d="M365.83,331.89l8.22-6.78A135.95,135.95,0,1,1,549.47,532.85"/><path class="cls-4" d="M418.64,576.73a136,136,0,0,0,163.53.69l-60.65-81.31-63.61-80"/><path class="cls-4" d="M332.48,334a136,136,0,1,1,0,271.9Z"/><path class="cls-5" d="M371.35,331.05l11.46-8.95c57-48.12,143.47-40.82,191.58,16.16s40.83,143.46-16.15,191.58"/><path class="cls-6" d="M469.56,415.06l63.61,80,60.65,81.31a136,136,0,0,1-163.53-.68s-6.21-4.76-4.75-4.62"/><path class="cls-7" d="M342.09,328.08a136,136,0,1,1,0,271.9Z"/><path class="cls-8" d="M341.2,517.28c-72.65.1-131.62-58.61-131.72-131.12s58.73-131.38,131.38-131.47Z"/><path class="cls-1" d="M47.93,267.35a133.7,133.7,0,1,1-.17,267.4Z"/><path class="cls-1" d="M317.88,537.33a133.7,133.7,0,0,1-.34-267.4Z"/><path class="cls-1" d="M58.27,262.44a133.71,133.71,0,0,1-.17,267.41Z"/><path class="cls-1" d="M328.22,532.43a133.7,133.7,0,0,1-.34-267.4Z"/><path class="cls-1" d="M66.64,255.42a133.71,133.71,0,0,1-.17,267.41Z"/><path class="cls-1" d="M336.59,525.41a133.7,133.7,0,1,1-.35-267.4Z"/><path class="cls-9" d="M74.47,248.36a133.7,133.7,0,1,1-.17,267.4Z"/><path class="cls-10" d="M344.43,518.36c-74,.09-134-59.69-134.13-133.53S270.1,251.05,344.09,251Z"/></svg>