<svg id="Layer_1" data-name="Layer 1" xmlns="http://www.w3.org/2000/svg" xmlns:xlink="http://www.w3.org/1999/xlink" viewBox="0 0 927 866"><defs><style>.cls-1,.cls-4{fill:#fff;}.cls-1,.cls-10,.cls-2,.cls-3,.cls-4,.cls-5,.cls-6,.cls-7,.cls-8,.cls-9{stroke:gray;stroke-miterlimit:10;}.cls-1{stroke-width:1.18px;}.cls-10,.cls-2,.cls-3,.cls-5,.cls-6,.cls-7,.cls-9{stroke-width:1.35px;}.cls-2{fill:url(#linear-gradient);}.cls-3{fill:url(#linear-gradient-2);}.cls-4{stroke-width:1.15px;}.cls-5{fill:url(#linear-gradient-3);}.cls-6{fill:url(#linear-gradient-4);}.cls-7{fill:url(#linear-gradient-5);}.cls-8{stroke-width:1.32px;fill:url(#linear-gradient-6);}.cls-9{fill:url(#linear-gradient-7);}.cls-10{fill:url(#linear-gradient-8);}</style><linearGradient id="linear-gradient" x1="606.9" y1="622.55" x2="601.88" y2="482.72" gradientUnits="userSpaceOnUse"><stop offset="0.37" stop-color="#2ae8b8"/><stop offset="1" stop-color="#2dc49c"/></linearGradient><linearGradient id="linear-gradient-2" x1="678.16" y1="574.9" x2="682.29" y2="863.14" gradientUnits="userSpaceOnUse"><stop offset="0.23" stop-color="#2ae8b8"/><stop offset="0.64" stop-color="#2dc49c"/></linearGradient><linearGradient id="linear-gradient-3" x1="214.99" y1="668.05" x2="387.62" y2="485.19" xlink:href="#linear-gradient"/><linearGradient id="linear-gradient-4" x1="208.13" y1="787.73" x2="380.97" y2="640.21" gradientUnits="userSpaceOnUse"><stop offset="0" stop-color="#2dbe98"/><stop offset="1" stop-color="#2ae5b6"/></linearGradient><linearGradient id="linear-gradient-5" x1="162.19" y1="637.71" x2="306.09" y2="637.71" xlink:href="#linear-gradient-4"/><linearGradient id="linear-gradient-6" x1="159.14" y1="211.09" x2="402.13" y2="211.68" gradientUnits="userSpaceOnUse"><stop offset="0.48" stop-color="#0ccb83"/><stop offset="0.69" stop-color="#08bd7e"/><stop offset="1" stop-color="#01a175"/></linearGradient><linearGradient id="linear-gradient-7" x1="134.58" y1="207.63" x2="295.05" y2="208.4" xlink:href="#linear-gradient-4"/><linearGradient id="linear-gradient-8" x1="157.92" y1="210.31" x2="398.21" y2="210.31" xlink:href="#linear-gradient"/></defs><path class="cls-1" d="M508.93,644.55V497.69A144.14,144.14,0,0,1,653.07,641.83"/><path class="cls-1" d="M521.43,643.25h275.7a144.13,144.13,0,0,1-288.26,0"/><line class="cls-1" x1="517.59" y1="643.25" x2="521.43" y2="643.25"/><path class="cls-1" d="M518,636.84V490A144.14,144.14,0,0,1,662.18,634.12"/><path class="cls-1" d="M529.33,635.54H806.24a144.14,144.14,0,0,1-288.27,0"/><path class="cls-1" d="M526.86,631.21V484.36A144.13,144.13,0,0,1,671,628.49"/><path class="cls-1" d="M536.57,629.91H815.06a144.14,144.14,0,0,1-288.27,0h.34"/><path class="cls-2" d="M534.79,624V477.12A144.13,144.13,0,0,1,678.92,621.25"/><path class="cls-3" d="M823,622.67a144.13,144.13,0,1,1-288.26,0Z"/><path class="cls-4" d="M151.54,499.62l8.53-7A141.13,141.13,0,1,1,342.18,708.23"/><path class="cls-4" d="M167.85,508.6l8.54-7a141.13,141.13,0,1,1,182.1,215.65"/><path class="cls-4" d="M134.11,507.76a141.13,141.13,0,0,1,0,282.26Z"/><path class="cls-4" d="M160.31,501.6l8.53-7A141.13,141.13,0,1,1,351,710.21"/><path class="cls-4" d="M251.86,600.21l66,83,63,84.41a141.18,141.18,0,0,1-169.76-.71"/><path class="cls-4" d="M121.65,514.92a141.13,141.13,0,0,1,0,282.26Z"/><path class="cls-4" d="M219.56,759.87a141.18,141.18,0,0,0,169.75.71l-63-84.41-66-83"/><path class="cls-4" d="M130.11,507.87a141.13,141.13,0,1,1,0,282.25Z"/><path class="cls-4" d="M173.2,500.54l8.53-7A141.13,141.13,0,1,1,363.84,709.15"/><path class="cls-4" d="M228,754.71a141.18,141.18,0,0,0,169.76.71l-63-84.41-66-83"/><path class="cls-4" d="M138.58,502.71a141.13,141.13,0,1,1,0,282.25Z"/><path class="cls-5" d="M178.93,499.66l11.9-9.28C250,440.43,339.76,448,389.71,507.15S432.09,656.08,372.94,706"/><path class="cls-6" d="M280.89,586.87l66,83,62.95,84.41a141.17,141.17,0,0,1-169.75-.71s-6.45-4.93-4.94-4.8"/><path class="cls-7" d="M148.56,496.58a141.13,141.13,0,0,1,0,282.26Z"/><path class="cls-8" d="M408.64,348c-75.42.1-136.64-60.84-136.74-136.12s61-136.38,136.38-136.47Z"/><path class="cls-1" d="M104.19,88.54A138.8,138.8,0,1,1,104,366.13Z"/><path class="cls-1" d="M384.42,368.81a138.8,138.8,0,1,1-.35-277.59Z"/><path class="cls-1" d="M114.93,83.45A138.8,138.8,0,0,1,114.75,361Z"/><path class="cls-1" d="M395.16,363.72a138.8,138.8,0,1,1-.36-277.59Z"/><path class="cls-1" d="M123.61,76.16a138.8,138.8,0,1,1-.17,277.59Z"/><path class="cls-1" d="M403.85,356.43a138.8,138.8,0,1,1-.36-277.59Z"/><path class="cls-9" d="M131.74,68.82a138.8,138.8,0,1,1-.18,277.59Z"/><path class="cls-10" d="M412,349.11c-76.81.1-139.15-62-139.25-138.62s62.09-138.87,138.89-139Z"/></svg>